<svg width="16" height="19" viewBox="0 0 16 19" fill="none" xmlns="http://www.w3.org/2000/svg">
<path d="M10.468 8.22828C10.468 9.86667 9.23095 11.1948 7.70495 11.1948C6.17895 11.1948 4.94189 9.86667 4.94189 8.22828C4.94189 6.58989 6.17895 5.26172 7.70495 5.26172C9.23095 5.26172 10.468 6.58989 10.468 8.22828Z" stroke="white" stroke-width="1.2"/>
<path d="M7.7051 0.601562C11.5502 0.601562 14.8101 4.01987 14.8101 8.16697C14.8101 12.3801 11.497 15.3366 8.43691 17.3471C8.21389 17.4823 7.96167 17.5533 7.7051 17.5533C7.44853 17.5533 7.1963 17.4823 6.97328 17.3471C3.91884 15.3171 0.600098 12.3947 0.600098 8.16697C0.600098 4.01987 3.86006 0.601562 7.7051 0.601562Z" stroke="white" stroke-width="1.2"/>
</svg>
